<?xml version="1.0" encoding="UTF-8" standalone="no"?>
<!DOCTYPE svg PUBLIC "-//W3C//DTD SVG 1.1//EN"
 "http://www.w3.org/Graphics/SVG/1.1/DTD/svg11.dtd">
<!-- Generated by graphviz version 2.38.0 (20140413.2041)
 -->
<!-- Title: %3 Pages: 1 -->
<svg width="595pt" height="163pt"
 viewBox="0.00 0.00 595.30 163.00" xmlns="http://www.w3.org/2000/svg" xmlns:xlink="http://www.w3.org/1999/xlink">
<g id="graph0" class="graph" transform="scale(1 1) rotate(0) translate(4 159)">
<title>%3</title>
<polygon fill="white" stroke="none" points="-4,4 -4,-159 591.295,-159 591.295,4 -4,4"/>
<!-- TextualSyntax -->
<g id="node1" class="node"><title>TextualSyntax</title>
<g id="a_node1"><a xlink:href="_global_3_TextualSyntax.svg" xlink:title="TextualSyntax\n[Ontolizer is a textual DSL and persists the models as human readable ASCII file. 
				This can be versioned, branched and merged 
				with any version control system (e.g. Subversion , GIT, ...)]">
<polygon fill="red" stroke="black" points="474,-155 0,-155 0,-87 474,-87 474,-155"/>
<text text-anchor="middle" x="237" y="-139.8" font-family="Times New Roman,serif" font-size="14.00">TextualSyntax</text>
<text text-anchor="middle" x="237" y="-124.8" font-family="Times New Roman,serif" font-size="14.00">[Ontolizer is a textual DSL and persists the models as human readable ASCII file. </text>
<text text-anchor="middle" x="237" y="-109.8" font-family="Times New Roman,serif" font-size="14.00">				This can be versioned, branched and merged </text>
<text text-anchor="middle" x="237" y="-94.8" font-family="Times New Roman,serif" font-size="14.00">				with any version control system (e.g. Subversion , GIT, ...)]</text>
</a>
</g>
</g>
<!-- VersionControl -->
<g id="node2" class="node"><title>VersionControl</title>
<g id="a_node2"><a xlink:href="_global_3_VersionControl.svg" xlink:title="VersionControl">
<ellipse fill="orange" stroke="black" cx="329" cy="-18" rx="66.8882" ry="18"/>
<text text-anchor="middle" x="329" y="-14.3" font-family="Times New Roman,serif" font-size="14.00">VersionControl</text>
</a>
</g>
</g>
<!-- TextualSyntax&#45;&gt;VersionControl -->
<g id="edge2" class="edge"><title>TextualSyntax&#45;&gt;VersionControl</title>
<path fill="none" stroke="black" d="M267.124,-86.9288C280.057,-72.7313 294.897,-56.4388 306.802,-43.3694"/>
<polygon fill="black" stroke="black" points="309.645,-45.4455 313.792,-35.6958 304.47,-40.7317 309.645,-45.4455"/>
<text text-anchor="middle" x="315" y="-57.8" font-family="Times New Roman,serif" font-size="14.00">solves</text>
</g>
<!-- Usability -->
<g id="node3" class="node"><title>Usability</title>
<g id="a_node3"><a xlink:href="_global_3_Usability.svg" xlink:title="Usability">
<ellipse fill="orange" stroke="black" cx="534" cy="-121" rx="42.4939" ry="18"/>
<text text-anchor="middle" x="534" y="-117.3" font-family="Times New Roman,serif" font-size="14.00">Usability</text>
</a>
</g>
</g>
<!-- Usability&#45;&gt;VersionControl -->
<g id="edge3" class="edge"><title>Usability&#45;&gt;VersionControl</title>
<path fill="none" stroke="black" d="M512.621,-105.09C503.665,-99.1299 493.022,-92.4111 483,-87 447.69,-67.9363 405.959,-49.7618 374.851,-37.006"/>
<polygon fill="black" stroke="black" points="376.138,-33.7513 365.556,-33.2263 373.501,-40.2356 376.138,-33.7513"/>
<text text-anchor="middle" x="468" y="-57.8" font-family="Times New Roman,serif" font-size="14.00">includes</text>
</g>
<!-- Traceability -->
<g id="node4" class="node"><title>Traceability</title>
<g id="a_node4"><a xlink:href="_global_3_Traceability.svg" xlink:title="Traceability">
<ellipse fill="orange" stroke="black" cx="534" cy="-18" rx="53.0913" ry="18"/>
<text text-anchor="middle" x="534" y="-14.3" font-family="Times New Roman,serif" font-size="14.00">Traceability</text>
</a>
</g>
</g>
<!-- Usability&#45;&gt;Traceability -->
<g id="edge1" class="edge"><title>Usability&#45;&gt;Traceability</title>
<path fill="none" stroke="black" d="M534,-102.867C534,-87.4137 534,-64.4158 534,-46.4093"/>
<polygon fill="black" stroke="black" points="537.5,-46.2173 534,-36.2173 530.5,-46.2174 537.5,-46.2173"/>
<text text-anchor="middle" x="557" y="-57.8" font-family="Times New Roman,serif" font-size="14.00">includes</text>
</g>
</g>
</svg>
