<?xml version="1.0" encoding="UTF-8" standalone="no"?>
<!DOCTYPE svg PUBLIC "-//W3C//DTD SVG 1.1//EN"
 "http://www.w3.org/Graphics/SVG/1.1/DTD/svg11.dtd">
<!-- Generated by graphviz version 2.38.0 (20140413.2041)
 -->
<!-- Title: %3 Pages: 1 -->
<svg width="595pt" height="163pt"
 viewBox="0.00 0.00 595.30 163.00" xmlns="http://www.w3.org/2000/svg" xmlns:xlink="http://www.w3.org/1999/xlink">
<g id="graph0" class="graph" transform="scale(1 1) rotate(0) translate(4 159)">
<title>%3</title>
<polygon fill="white" stroke="none" points="-4,4 -4,-159 591.295,-159 591.295,4 -4,4"/>
<!-- Usability -->
<g id="node1" class="node"><title>Usability</title>
<g id="a_node1"><a xlink:href="_global_3_Usability.svg" xlink:title="Usability">
<ellipse fill="red" stroke="black" cx="53.2953" cy="-121" rx="42.4939" ry="18"/>
<text text-anchor="middle" x="53.2953" y="-117.3" font-family="Times New Roman,serif" font-size="14.00">Usability</text>
</a>
</g>
</g>
<!-- Traceability -->
<g id="node2" class="node"><title>Traceability</title>
<g id="a_node2"><a xlink:href="_global_3_Traceability.svg" xlink:title="Traceability">
<ellipse fill="orange" stroke="black" cx="53.2953" cy="-18" rx="53.0913" ry="18"/>
<text text-anchor="middle" x="53.2953" y="-14.3" font-family="Times New Roman,serif" font-size="14.00">Traceability</text>
</a>
</g>
</g>
<!-- Usability&#45;&gt;Traceability -->
<g id="edge1" class="edge"><title>Usability&#45;&gt;Traceability</title>
<path fill="none" stroke="black" d="M53.2953,-102.867C53.2953,-87.4137 53.2953,-64.4158 53.2953,-46.4093"/>
<polygon fill="black" stroke="black" points="56.7954,-46.2173 53.2953,-36.2173 49.7954,-46.2174 56.7954,-46.2173"/>
<text text-anchor="middle" x="76.2953" y="-57.8" font-family="Times New Roman,serif" font-size="14.00">includes</text>
</g>
<!-- VersionControl -->
<g id="node3" class="node"><title>VersionControl</title>
<g id="a_node3"><a xlink:href="_global_3_VersionControl.svg" xlink:title="VersionControl">
<ellipse fill="orange" stroke="black" cx="270.295" cy="-18" rx="66.8882" ry="18"/>
<text text-anchor="middle" x="270.295" y="-14.3" font-family="Times New Roman,serif" font-size="14.00">VersionControl</text>
</a>
</g>
</g>
<!-- Usability&#45;&gt;VersionControl -->
<g id="edge2" class="edge"><title>Usability&#45;&gt;VersionControl</title>
<path fill="none" stroke="black" d="M74.1064,-105.285C83.1518,-99.2212 94.0138,-92.3729 104.295,-87 142.481,-67.045 187.873,-48.799 221.532,-36.2425"/>
<polygon fill="black" stroke="black" points="222.97,-39.4424 231.138,-32.6942 220.545,-32.876 222.97,-39.4424"/>
<text text-anchor="middle" x="199.295" y="-57.8" font-family="Times New Roman,serif" font-size="14.00">includes</text>
</g>
<!-- TextualSyntax -->
<g id="node4" class="node"><title>TextualSyntax</title>
<g id="a_node4"><a xlink:href="_global_3_TextualSyntax.svg" xlink:title="TextualSyntax\n[Ontolizer is a textual DSL and persists the models as human readable ASCII file. 
				This can be versioned, branched and merged 
				with any version control system (e.g. Subversion , GIT, ...)]">
<polygon fill="lightblue" stroke="black" points="587.295,-155 113.295,-155 113.295,-87 587.295,-87 587.295,-155"/>
<text text-anchor="middle" x="350.295" y="-139.8" font-family="Times New Roman,serif" font-size="14.00">TextualSyntax</text>
<text text-anchor="middle" x="350.295" y="-124.8" font-family="Times New Roman,serif" font-size="14.00">[Ontolizer is a textual DSL and persists the models as human readable ASCII file. </text>
<text text-anchor="middle" x="350.295" y="-109.8" font-family="Times New Roman,serif" font-size="14.00">				This can be versioned, branched and merged </text>
<text text-anchor="middle" x="350.295" y="-94.8" font-family="Times New Roman,serif" font-size="14.00">				with any version control system (e.g. Subversion , GIT, ...)]</text>
</a>
</g>
</g>
<!-- TextualSyntax&#45;&gt;VersionControl -->
<g id="edge3" class="edge"><title>TextualSyntax&#45;&gt;VersionControl</title>
<path fill="none" stroke="black" d="M324.1,-86.9288C312.961,-72.8652 300.193,-56.7461 289.891,-43.7401"/>
<polygon fill="black" stroke="black" points="292.472,-41.3615 283.52,-35.6958 286.985,-45.7079 292.472,-41.3615"/>
<text text-anchor="middle" x="325.295" y="-57.8" font-family="Times New Roman,serif" font-size="14.00">solves</text>
</g>
</g>
</svg>
