<?xml version="1.0" encoding="UTF-8" standalone="no"?>
<!DOCTYPE svg PUBLIC "-//W3C//DTD SVG 1.1//EN"
 "http://www.w3.org/Graphics/SVG/1.1/DTD/svg11.dtd">
<!-- Generated by graphviz version 2.38.0 (20140413.2041)
 -->
<!-- Title: %3 Pages: 1 -->
<svg width="724pt" height="163pt"
 viewBox="0.00 0.00 724.00 163.00" xmlns="http://www.w3.org/2000/svg" xmlns:xlink="http://www.w3.org/1999/xlink">
<g id="graph0" class="graph" transform="scale(1 1) rotate(0) translate(4 159)">
<title>%3</title>
<polygon fill="white" stroke="none" points="-4,4 -4,-159 720,-159 720,4 -4,4"/>
<!-- OntologyModeling -->
<g id="node1" class="node"><title>OntologyModeling</title>
<polygon fill="lightblue" stroke="black" points="122,-139 7.10543e-015,-139 7.10543e-015,-103 122,-103 122,-139"/>
<text text-anchor="middle" x="61" y="-117.3" font-family="Times New Roman,serif" font-size="14.00">OntologyModeling</text>
</g>
<!-- Usability -->
<g id="node2" class="node"><title>Usability</title>
<ellipse fill="orange" stroke="black" cx="182" cy="-121" rx="42.4939" ry="18"/>
<text text-anchor="middle" x="182" y="-117.3" font-family="Times New Roman,serif" font-size="14.00">Usability</text>
</g>
<!-- Traceability -->
<g id="node3" class="node"><title>Traceability</title>
<ellipse fill="orange" stroke="black" cx="182" cy="-18" rx="53.0913" ry="18"/>
<text text-anchor="middle" x="182" y="-14.3" font-family="Times New Roman,serif" font-size="14.00">Traceability</text>
</g>
<!-- Usability&#45;&gt;Traceability -->
<g id="edge1" class="edge"><title>Usability&#45;&gt;Traceability</title>
<path fill="none" stroke="black" d="M182,-102.867C182,-87.4137 182,-64.4158 182,-46.4093"/>
<polygon fill="black" stroke="black" points="185.5,-46.2173 182,-36.2173 178.5,-46.2174 185.5,-46.2173"/>
<text text-anchor="middle" x="205" y="-57.8" font-family="Times New Roman,serif" font-size="14.00">includes</text>
</g>
<!-- VersionControl -->
<g id="node4" class="node"><title>VersionControl</title>
<ellipse fill="orange" stroke="black" cx="399" cy="-18" rx="66.8882" ry="18"/>
<text text-anchor="middle" x="399" y="-14.3" font-family="Times New Roman,serif" font-size="14.00">VersionControl</text>
</g>
<!-- Usability&#45;&gt;VersionControl -->
<g id="edge2" class="edge"><title>Usability&#45;&gt;VersionControl</title>
<path fill="none" stroke="black" d="M202.811,-105.285C211.857,-99.2212 222.719,-92.3729 233,-87 271.186,-67.045 316.578,-48.799 350.237,-36.2425"/>
<polygon fill="black" stroke="black" points="351.675,-39.4424 359.843,-32.6942 349.25,-32.876 351.675,-39.4424"/>
<text text-anchor="middle" x="327" y="-57.8" font-family="Times New Roman,serif" font-size="14.00">includes</text>
</g>
<!-- TextualSyntax -->
<g id="node5" class="node"><title>TextualSyntax</title>
<polygon fill="lightblue" stroke="black" points="716,-155 242,-155 242,-87 716,-87 716,-155"/>
<text text-anchor="middle" x="479" y="-139.8" font-family="Times New Roman,serif" font-size="14.00">TextualSyntax</text>
<text text-anchor="middle" x="479" y="-124.8" font-family="Times New Roman,serif" font-size="14.00">[Ontolizer is a textual DSL and persists the models as human readable ASCII file. </text>
<text text-anchor="middle" x="479" y="-109.8" font-family="Times New Roman,serif" font-size="14.00">				This can be versioned, branched and merged </text>
<text text-anchor="middle" x="479" y="-94.8" font-family="Times New Roman,serif" font-size="14.00">				with any version control system (e.g. Subversion , GIT, ...)]</text>
</g>
<!-- TextualSyntax&#45;&gt;VersionControl -->
<g id="edge3" class="edge"><title>TextualSyntax&#45;&gt;VersionControl</title>
<path fill="none" stroke="black" d="M452.805,-86.9288C441.666,-72.8652 428.898,-56.7461 418.596,-43.7401"/>
<polygon fill="black" stroke="black" points="421.177,-41.3615 412.224,-35.6958 415.69,-45.7079 421.177,-41.3615"/>
<text text-anchor="middle" x="454" y="-57.8" font-family="Times New Roman,serif" font-size="14.00">solves</text>
</g>
</g>
</svg>
