<?xml version="1.0" encoding="UTF-8" standalone="no"?>
<!DOCTYPE svg PUBLIC "-//W3C//DTD SVG 1.1//EN"
 "http://www.w3.org/Graphics/SVG/1.1/DTD/svg11.dtd">
<!-- Generated by graphviz version 2.38.0 (20140413.2041)
 -->
<!-- Title: %3 Pages: 1 -->
<svg width="266pt" height="131pt"
 viewBox="0.00 0.00 266.24 131.00" xmlns="http://www.w3.org/2000/svg" xmlns:xlink="http://www.w3.org/1999/xlink">
<g id="graph0" class="graph" transform="scale(1 1) rotate(0) translate(4 127)">
<title>%3</title>
<polygon fill="white" stroke="none" points="-4,4 -4,-127 262.239,-127 262.239,4 -4,4"/>
<!-- Usability -->
<g id="node1" class="node"><title>Usability</title>
<g id="a_node1"><a xlink:href="_global_1_Usability.svg" xlink:title="Usability">
<ellipse fill="red" stroke="black" cx="122.295" cy="-105" rx="42.4939" ry="18"/>
<text text-anchor="middle" x="122.295" y="-101.3" font-family="Times New Roman,serif" font-size="14.00">Usability</text>
</a>
</g>
</g>
<!-- Traceability -->
<g id="node2" class="node"><title>Traceability</title>
<g id="a_node2"><a xlink:href="_global_1_Traceability.svg" xlink:title="Traceability">
<ellipse fill="orange" stroke="black" cx="53.2953" cy="-18" rx="53.0913" ry="18"/>
<text text-anchor="middle" x="53.2953" y="-14.3" font-family="Times New Roman,serif" font-size="14.00">Traceability</text>
</a>
</g>
</g>
<!-- Usability&#45;&gt;Traceability -->
<g id="edge1" class="edge"><title>Usability&#45;&gt;Traceability</title>
<path fill="none" stroke="black" d="M108.991,-87.6111C98.8431,-75.1096 84.6998,-57.6868 73.2053,-43.5268"/>
<polygon fill="black" stroke="black" points="75.8137,-41.1866 66.7938,-35.6286 70.3789,-45.5984 75.8137,-41.1866"/>
<text text-anchor="middle" x="115.295" y="-57.8" font-family="Times New Roman,serif" font-size="14.00">includes</text>
</g>
<!-- VersionControl -->
<g id="node3" class="node"><title>VersionControl</title>
<g id="a_node3"><a xlink:href="_global_1_VersionControl.svg" xlink:title="VersionControl">
<ellipse fill="orange" stroke="black" cx="191.295" cy="-18" rx="66.8882" ry="18"/>
<text text-anchor="middle" x="191.295" y="-14.3" font-family="Times New Roman,serif" font-size="14.00">VersionControl</text>
</a>
</g>
</g>
<!-- Usability&#45;&gt;VersionControl -->
<g id="edge2" class="edge"><title>Usability&#45;&gt;VersionControl</title>
<path fill="none" stroke="black" d="M135.599,-87.6111C145.682,-75.1903 159.708,-57.9114 171.162,-43.8013"/>
<polygon fill="black" stroke="black" points="173.975,-45.8902 177.56,-35.9203 168.54,-41.4784 173.975,-45.8902"/>
<text text-anchor="middle" x="183.295" y="-57.8" font-family="Times New Roman,serif" font-size="14.00">includes</text>
</g>
</g>
</svg>
