<?xml version="1.0" encoding="UTF-8" standalone="no"?>
<!DOCTYPE svg PUBLIC "-//W3C//DTD SVG 1.1//EN"
 "http://www.w3.org/Graphics/SVG/1.1/DTD/svg11.dtd">
<!-- Generated by graphviz version 2.38.0 (20140413.2041)
 -->
<!-- Title: %3 Pages: 1 -->
<svg width="622pt" height="163pt"
 viewBox="0.00 0.00 622.00 163.00" xmlns="http://www.w3.org/2000/svg" xmlns:xlink="http://www.w3.org/1999/xlink">
<g id="graph0" class="graph" transform="scale(1 1) rotate(0) translate(4 159)">
<title>%3</title>
<polygon fill="white" stroke="none" points="-4,4 -4,-159 618,-159 618,4 -4,4"/>
<!-- OntologyModeling -->
<g id="node1" class="node"><title>OntologyModeling</title>
<polygon fill="lightblue" stroke="black" points="122,-139 7.10543e-015,-139 7.10543e-015,-103 122,-103 122,-139"/>
<text text-anchor="middle" x="61" y="-117.3" font-family="Times New Roman,serif" font-size="14.00">OntologyModeling</text>
</g>
<!-- TextualSyntax -->
<g id="node2" class="node"><title>TextualSyntax</title>
<polygon fill="lightblue" stroke="black" points="614,-155 140,-155 140,-87 614,-87 614,-155"/>
<text text-anchor="middle" x="377" y="-139.8" font-family="Times New Roman,serif" font-size="14.00">TextualSyntax</text>
<text text-anchor="middle" x="377" y="-124.8" font-family="Times New Roman,serif" font-size="14.00">[Ontolizer is a textual DSL and persists the models as human readable ASCII file. </text>
<text text-anchor="middle" x="377" y="-109.8" font-family="Times New Roman,serif" font-size="14.00">				This can be versioned, branched and merged </text>
<text text-anchor="middle" x="377" y="-94.8" font-family="Times New Roman,serif" font-size="14.00">				with any version control system (e.g. Subversion , GIT, ...)]</text>
</g>
<!-- VersionControl -->
<g id="node3" class="node"><title>VersionControl</title>
<ellipse fill="none" stroke="black" cx="377" cy="-18" rx="66.8882" ry="18"/>
<text text-anchor="middle" x="377" y="-14.3" font-family="Times New Roman,serif" font-size="14.00">VersionControl</text>
</g>
<!-- TextualSyntax&#45;&gt;VersionControl -->
<g id="edge1" class="edge"><title>TextualSyntax&#45;&gt;VersionControl</title>
<path fill="none" stroke="black" d="M377,-86.9288C377,-73.8468 377,-58.9862 377,-46.5072"/>
<polygon fill="black" stroke="black" points="380.5,-46.2585 377,-36.2585 373.5,-46.2585 380.5,-46.2585"/>
<text text-anchor="middle" x="395" y="-57.8" font-family="Times New Roman,serif" font-size="14.00">solves</text>
</g>
</g>
</svg>
