<?xml version="1.0" encoding="UTF-8" standalone="no"?>
<!DOCTYPE svg PUBLIC "-//W3C//DTD SVG 1.1//EN"
 "http://www.w3.org/Graphics/SVG/1.1/DTD/svg11.dtd">
<!-- Generated by graphviz version 2.38.0 (20140413.2041)
 -->
<!-- Title: %3 Pages: 1 -->
<svg width="1001pt" height="76pt"
 viewBox="0.00 0.00 1001.00 76.00" xmlns="http://www.w3.org/2000/svg" xmlns:xlink="http://www.w3.org/1999/xlink">
<g id="graph0" class="graph" transform="scale(1 1) rotate(0) translate(4 72)">
<title>%3</title>
<polygon fill="white" stroke="none" points="-4,4 -4,-72 997,-72 997,4 -4,4"/>
<!-- OntologyModeling -->
<g id="node1" class="node"><title>OntologyModeling</title>
<polygon fill="lightblue" stroke="black" points="122,-52 7.10543e-015,-52 7.10543e-015,-16 122,-16 122,-52"/>
<text text-anchor="middle" x="61" y="-30.3" font-family="Times New Roman,serif" font-size="14.00">OntologyModeling</text>
</g>
<!-- Usability -->
<g id="node2" class="node"><title>Usability</title>
<ellipse fill="orange" stroke="black" cx="182" cy="-34" rx="42.4939" ry="18"/>
<text text-anchor="middle" x="182" y="-30.3" font-family="Times New Roman,serif" font-size="14.00">Usability</text>
</g>
<!-- Traceability -->
<g id="node3" class="node"><title>Traceability</title>
<ellipse fill="orange" stroke="black" cx="296" cy="-34" rx="53.0913" ry="18"/>
<text text-anchor="middle" x="296" y="-30.3" font-family="Times New Roman,serif" font-size="14.00">Traceability</text>
</g>
<!-- VersionControl -->
<g id="node4" class="node"><title>VersionControl</title>
<ellipse fill="orange" stroke="black" cx="434" cy="-34" rx="66.8882" ry="18"/>
<text text-anchor="middle" x="434" y="-30.3" font-family="Times New Roman,serif" font-size="14.00">VersionControl</text>
</g>
<!-- TextualSyntax -->
<g id="node5" class="node"><title>TextualSyntax</title>
<polygon fill="lightblue" stroke="black" points="993,-68 519,-68 519,-0 993,-0 993,-68"/>
<text text-anchor="middle" x="756" y="-52.8" font-family="Times New Roman,serif" font-size="14.00">TextualSyntax</text>
<text text-anchor="middle" x="756" y="-37.8" font-family="Times New Roman,serif" font-size="14.00">[Ontolizer is a textual DSL and persists the models as human readable ASCII file. </text>
<text text-anchor="middle" x="756" y="-22.8" font-family="Times New Roman,serif" font-size="14.00">				This can be versioned, branched and merged </text>
<text text-anchor="middle" x="756" y="-7.8" font-family="Times New Roman,serif" font-size="14.00">				with any version control system (e.g. Subversion , GIT, ...)]</text>
</g>
</g>
</svg>
